<?xml version="1.0" encoding="utf-8"?>
<!-- Generator: Adobe Illustrator 25.3.1, SVG Export Plug-In . SVG Version: 6.00 Build 0)  -->
<svg version="1.1" id="Layer_1" xmlns="http://www.w3.org/2000/svg" xmlns:xlink="http://www.w3.org/1999/xlink" x="0px" y="0px"
	 viewBox="0 0 64 64" style="enable-background:new 0 0 64 64;" xml:space="preserve">
<style type="text/css">
	.st0{fill:url(#XMLID_16_);}
	.st1{fill:#FFE959;}
	.st2{opacity:0.2;}
	.st3{fill:#424242;}
	.st4{opacity:0.9;fill:url(#XMLID_17_);enable-background:new    ;}
	.st5{fill:url(#SVGID_1_);}
	.st6{fill:url(#XMLID_18_);}
	.st7{opacity:0.9;fill:url(#XMLID_19_);enable-background:new    ;}
	.st8{fill:url(#XMLID_20_);}
	.st9{opacity:0.9;fill:url(#XMLID_21_);enable-background:new    ;}
	.st10{fill:url(#SVGID_2_);}
	.st11{opacity:0.9;fill:url(#XMLID_22_);enable-background:new    ;}
	.st12{fill:url(#XMLID_23_);}
	.st13{opacity:0.9;fill:url(#XMLID_24_);enable-background:new    ;}
	.st14{fill:url(#SVGID_3_);}
	.st15{fill:url(#XMLID_26_);}
	.st16{opacity:0.9;fill:url(#XMLID_27_);enable-background:new    ;}
	.st17{fill:url(#XMLID_31_);}
	.st18{opacity:0.9;fill:url(#XMLID_33_);enable-background:new    ;}
	.st19{fill:url(#SVGID_4_);}
	.st20{opacity:0.9;fill:url(#XMLID_34_);enable-background:new    ;}
	.st21{fill:url(#XMLID_36_);}
	.st22{opacity:0.9;fill:url(#XMLID_37_);enable-background:new    ;}
	.st23{fill:url(#SVGID_5_);}
	.st24{fill:url(#XMLID_38_);}
	.st25{opacity:0.9;fill:url(#XMLID_39_);enable-background:new    ;}
	.st26{fill:url(#XMLID_40_);}
	.st27{opacity:0.9;fill:url(#XMLID_41_);enable-background:new    ;}
	.st28{fill:url(#SVGID_6_);}
	.st29{opacity:0.9;fill:url(#XMLID_42_);enable-background:new    ;}
</style>
<g id="Layer_1_1_">
	
		<linearGradient id="XMLID_16_" gradientUnits="userSpaceOnUse" x1="-1821.1353" y1="983.1743" x2="-1821.1353" y2="998.0543" gradientTransform="matrix(-1 0 0 1 -1790.2753 -946)">
		<stop  offset="1.970000e-02" style="stop-color:#F7BC00"/>
		<stop  offset="1" style="stop-color:#FCD73E"/>
	</linearGradient>
	<path id="XMLID_68_" class="st0" d="M52.3,40.2v14.1l-40.2-6.1c-1.5-0.3-2.6-1.3-2.6-2.3c0.1-3.8-0.1-7.5,0-11.1
		c0-0.7,0.1-1.5,1.2-1.7c0.7-0.1,1.6,0.2,2.3,0.3l4.9,0.8c0,0.1,0,0.3,0,0.4c0,1.6,1.7,3,4,3.1c2,0.1,3.6-0.8,3.9-2.2L40.6,38
		c-0.1,0.2-0.2,0.4-0.2,0.5c0,0.7,0.9,1.3,1.9,1.4c1.1,0.1,1.9-0.4,1.9-1.2c0-0.1,0-0.1,0-0.2C44.1,38.6,52.3,40.2,52.3,40.2z"/>
	<path class="st1" d="M9.5,34.8c0.3-1.2-0.4-2.6,3.5-1.5l4.9,0.8c0.4-1,2-1.6,3.8-1.4c2.2,0.1,4,1.3,4,2.5c0,0.1,0,0.2,0,0.3
		L40.5,38l0,0c0.3-0.3,1-0.4,1.7-0.4c1,0.1,1.9,0.5,1.9,1.1l8.2,1.6L30.8,27.5c-2-1.2-4.5-1.7-6.7-1.3c-2.2,0.3-5,0.8-7.1,1.6
		c-2.5,0.9-4.8,2.4-6.2,3.6c-0.1,0.1-0.6,0.5-0.9,1.1C9.5,33,9.5,33.8,9.5,34.8z"/>
	<g class="st2">
		<path class="st3" d="M25.4,27c1.6,0,3.3,0.4,4.7,1.3l21,12.5v12.6l-38.8-5.9c-0.9-0.2-1.7-0.8-1.6-1.4c0-2.2,0-4.3,0-6.5
			c0-1.5,0-3.1,0-4.7c0-0.1,0-0.2,0-0.4l0,0c0-0.5,0.1-1.2,0.3-1.6c0.2-0.4,0.5-0.7,0.6-0.8c1.4-1.1,3.6-2.5,5.8-3.4
			c1.6-0.6,4-1.1,6.8-1.5C24.6,27,24.9,27,25.4,27 M25.4,26.1c-0.4,0-0.9,0-1.3,0.1c-2.2,0.3-5,0.8-7.1,1.6
			c-2.5,0.9-4.8,2.4-6.2,3.6c-0.1,0.1-0.6,0.5-0.9,1.1c-0.3,0.5-0.3,1.2-0.4,1.9c0,0.2,0,0.3,0,0.4c0,3.7,0.1,7.5,0.1,11.1
			c0,1.1,1.1,2.1,2.6,2.3l40.2,6.1V40.2L30.8,27.5C29.2,26.6,27.3,26.1,25.4,26.1L25.4,26.1z"/>
	</g>
	
		<radialGradient id="XMLID_17_" cx="-3045.1987" cy="2047.4469" r="6.8687" gradientTransform="matrix(-0.4258 0 0 0.3225 -1279.9813 -617.1899)" gradientUnits="userSpaceOnUse">
		<stop  offset="8.130000e-02" style="stop-color:#DE7F14"/>
		<stop  offset="0.3389" style="stop-color:#DA7D12"/>
		<stop  offset="0.5993" style="stop-color:#CE760D"/>
		<stop  offset="0.8602" style="stop-color:#BA6C05"/>
		<stop  offset="0.987" style="stop-color:#AD6500"/>
	</radialGradient>
	<path id="XMLID_35_" class="st4" d="M18.4,43.8c0,1.2-1.3,2.1-3,2c-1.6-0.1-3-1.2-3-2.3s1.3-2.1,3-2C17,41.5,18.4,42.6,18.4,43.8z"
		/>
	
		<radialGradient id="SVGID_1_" cx="-3064.4275" cy="2015.957" r="14.1321" gradientTransform="matrix(-0.4258 0 0 0.3225 -1279.9813 -617.1899)" gradientUnits="userSpaceOnUse">
		<stop  offset="8.130000e-02" style="stop-color:#DE7F14"/>
		<stop  offset="0.3389" style="stop-color:#DA7D12"/>
		<stop  offset="0.5993" style="stop-color:#CE760D"/>
		<stop  offset="0.8602" style="stop-color:#BA6C05"/>
		<stop  offset="0.987" style="stop-color:#AD6500"/>
	</radialGradient>
	<path class="st5" d="M17.8,34.4c0,1.6,1.7,3,4,3.1c2,0.1,3.6-0.8,3.9-2.2h-0.1l-0.3-0.1l0.4,0.1c0-0.1,0-0.2,0-0.3
		c0-1.3-1.8-2.4-4-2.5c-1.8-0.1-3.4,0.5-3.8,1.4C17.8,34.2,17.8,34.4,17.8,34.4z"/>
	
		<radialGradient id="XMLID_18_" cx="-1328.2202" cy="3481.7471" r="7.102" gradientTransform="matrix(-0.3078 0.2228 0.2409 0.1909 -1221.5251 -340.7984)" gradientUnits="userSpaceOnUse">
		<stop  offset="8.750000e-02" style="stop-color:#D99914"/>
		<stop  offset="0.4098" style="stop-color:#D59612"/>
		<stop  offset="0.735" style="stop-color:#C98D0D"/>
		<stop  offset="0.987" style="stop-color:#BA8207"/>
	</radialGradient>
	<path id="XMLID_32_" class="st6" d="M26.8,29.4c0,0.5-0.9,1-2,0.9s-2-0.6-2-1.2s0.9-1,2-0.9C26,28.2,26.8,28.8,26.8,29.4z"/>
	
		<radialGradient id="XMLID_19_" cx="-3079.553" cy="2044.411" r="15.6725" gradientTransform="matrix(-0.4258 0 0 0.3225 -1279.9813 -617.1899)" gradientUnits="userSpaceOnUse">
		<stop  offset="8.130000e-02" style="stop-color:#DE7F14"/>
		<stop  offset="0.3389" style="stop-color:#DA7D12"/>
		<stop  offset="0.5993" style="stop-color:#CE760D"/>
		<stop  offset="0.8602" style="stop-color:#BA6C05"/>
		<stop  offset="0.987" style="stop-color:#AD6500"/>
	</radialGradient>
	<path id="XMLID_30_" class="st7" d="M35.1,43.4c0,2.1-2.2,3.5-5,3.3s-5-2-5-4c0-2.1,2.2-3.5,5-3.3C32.8,39.6,35.1,41.4,35.1,43.4z"
		/>
	
		<radialGradient id="XMLID_20_" cx="-3076.3616" cy="2011.1648" r="10.9118" gradientTransform="matrix(-0.4258 0 0 0.3225 -1279.9813 -617.1899)" gradientUnits="userSpaceOnUse">
		<stop  offset="8.750000e-02" style="stop-color:#D99914"/>
		<stop  offset="0.4098" style="stop-color:#D59612"/>
		<stop  offset="0.735" style="stop-color:#C98D0D"/>
		<stop  offset="0.987" style="stop-color:#BA8207"/>
	</radialGradient>
	<path id="XMLID_29_" class="st8" d="M35.8,33.1c0,0.8-1.3,1.3-2.9,1.2c-1.6-0.2-2.9-0.8-2.9-1.6c0-0.8,1.3-1.3,2.9-1.2
		C34.6,31.7,35.8,32.3,35.8,33.1z"/>
	
		<radialGradient id="XMLID_21_" cx="-3102.3035" cy="2059.7668" r="5.9285" gradientTransform="matrix(-0.4258 0 0 0.3225 -1279.9813 -617.1899)" gradientUnits="userSpaceOnUse">
		<stop  offset="8.130000e-02" style="stop-color:#DE7F14"/>
		<stop  offset="0.3389" style="stop-color:#DA7D12"/>
		<stop  offset="0.5993" style="stop-color:#CE760D"/>
		<stop  offset="0.8602" style="stop-color:#BA6C05"/>
		<stop  offset="0.987" style="stop-color:#AD6500"/>
	</radialGradient>
	<path id="XMLID_28_" class="st9" d="M42.3,47.7c0,1-1.2,1.8-2.6,1.7c-1.4-0.1-2.6-1-2.6-2.1c0-1.1,1.2-1.8,2.6-1.7
		C41.1,45.9,42.3,46.8,42.3,47.7z"/>
	
		<radialGradient id="SVGID_2_" cx="-3106.8088" cy="2030.0343" r="8.8408" gradientTransform="matrix(-0.4258 0 0 0.3225 -1279.9813 -617.1899)" gradientUnits="userSpaceOnUse">
		<stop  offset="8.600000e-02" style="stop-color:#C77315"/>
		<stop  offset="0.3774" style="stop-color:#C37113"/>
		<stop  offset="0.6718" style="stop-color:#B76C0F"/>
		<stop  offset="0.9669" style="stop-color:#A36407"/>
		<stop  offset="0.987" style="stop-color:#A16306"/>
	</radialGradient>
	<path class="st10" d="M40.2,38.5c0,0.7,0.9,1.3,1.9,1.4c1.1,0.1,1.9-0.4,1.9-1.2c0-0.1,0-0.1,0-0.2l0,0c0-0.5-0.9-1-1.9-1.1
		c-0.7-0.1-1.4,0.1-1.7,0.4l0,0C40.3,38.1,40.2,38.3,40.2,38.5z"/>
	
		<radialGradient id="XMLID_22_" cx="-3119.2205" cy="2048.8999" r="4.3985" gradientTransform="matrix(-0.4258 0 0 0.3225 -1279.9813 -617.1899)" gradientUnits="userSpaceOnUse">
		<stop  offset="8.130000e-02" style="stop-color:#DE7F14"/>
		<stop  offset="0.3389" style="stop-color:#DA7D12"/>
		<stop  offset="0.5993" style="stop-color:#CE760D"/>
		<stop  offset="0.8602" style="stop-color:#BA6C05"/>
		<stop  offset="0.987" style="stop-color:#AD6500"/>
	</radialGradient>
	<path id="XMLID_25_" class="st11" d="M48.7,44c0,0.5-0.6,1-1.3,0.9c-0.7-0.1-1.3-0.5-1.3-1.1c0-0.5,0.6-1,1.3-0.9
		C48,43,48.7,43.4,48.7,44z"/>
</g>
<g id="Layer_1_2_">
	
		<linearGradient id="XMLID_23_" gradientUnits="userSpaceOnUse" x1="-2126.572" y1="1026.7761" x2="-2126.572" y2="1039.9379" gradientTransform="matrix(-0.7652 -1.674123e-02 -1.879947e-02 0.8593 -1576.2157 -893.4085)">
		<stop  offset="1.970000e-02" style="stop-color:#F7BC00"/>
		<stop  offset="1" style="stop-color:#FCD73E"/>
	</linearGradient>
	<path id="XMLID_7_" class="st12" d="M47,27l-0.4,10.9l-28.5-5.1c-1.1-0.2-1.8-1-1.8-1.8c0.2-2.9,0.1-5.8,0.3-8.6
		c0-0.5,0.1-1.2,0.9-1.3c0.5-0.1,1.2,0.2,1.7,0.3l3.4,0.7c0,0.1,0,0.2,0,0.3c0,1.2,1.2,2.3,2.7,2.4c1.4,0.1,2.6-0.6,2.8-1.6
		l10.5,2.2c-0.1,0.1-0.2,0.3-0.2,0.4c0,0.5,0.5,1.1,1.3,1.2c0.7,0.1,1.3-0.4,1.3-0.9c0-0.1,0-0.1,0-0.2C41.1,25.6,47,27,47,27z"/>
	<path class="st1" d="M16.5,22.4c0.2-0.9-0.2-2,2.5-1.2l3.4,0.7c0.3-0.7,1.4-1.2,2.8-1.1c1.5,0.1,2.8,1.1,2.8,2c0,0.1,0,0.2,0,0.2
		l10.5,2.2l0,0c0.2-0.3,0.7-0.4,1.3-0.4c0.7,0.1,1.3,0.4,1.3,0.8l5.8,1.3L32,17c-1.3-0.9-3.1-1.3-4.8-1.1c-1.6,0.2-3.6,0.5-5.1,1.2
		c-1.8,0.6-3.4,1.8-4.5,2.7c-0.1,0.1-0.4,0.4-0.6,0.8C16.6,21.1,16.6,21.7,16.5,22.4z"/>
	<g class="st2">
		<path class="st3" d="M28.1,16.5c1.2,0,2.3,0.4,3.3,1l14.7,9.8L45.9,37l-27.6-4.9c-0.6-0.1-1.2-0.6-1.2-1.2
			c0.1-1.6,0.1-3.3,0.2-4.9c0-1.2,0.1-2.4,0.1-3.6c0-0.1,0-0.2,0-0.3l0,0c0-0.4,0.1-0.9,0.2-1.3c0.1-0.3,0.4-0.5,0.4-0.6
			c1-0.8,2.6-1.9,4.3-2.5c1.2-0.4,2.9-0.8,4.9-1.1C27.5,16.5,27.8,16.5,28.1,16.5 M28.1,15.8c-0.4,0-0.6,0-1,0.1
			c-1.6,0.2-3.6,0.5-5.1,1.2c-1.8,0.6-3.4,1.8-4.5,2.7c-0.1,0.1-0.4,0.4-0.6,0.8c-0.2,0.4-0.3,0.9-0.3,1.4c0,0.1,0,0.2,0,0.3
			c-0.1,2.9-0.1,5.8-0.3,8.6c0,0.8,0.7,1.6,1.8,1.8l28.5,5.1L47,27L31.9,17C30.8,16.3,29.4,15.8,28.1,15.8L28.1,15.8z"/>
	</g>
	
		<radialGradient id="XMLID_24_" cx="-3991.9529" cy="2401.9651" r="6.8687" gradientTransform="matrix(-0.3037 -4.346208e-03 -7.587721e-03 0.2484 -1172.6548 -585.129)" gradientUnits="userSpaceOnUse">
		<stop  offset="8.130000e-02" style="stop-color:#DE7F14"/>
		<stop  offset="0.3389" style="stop-color:#DA7D12"/>
		<stop  offset="0.5993" style="stop-color:#CE760D"/>
		<stop  offset="0.8602" style="stop-color:#BA6C05"/>
		<stop  offset="0.987" style="stop-color:#AD6500"/>
	</radialGradient>
	<path id="XMLID_6_" class="st13" d="M22.7,29.4c0,0.9-1,1.6-2.2,1.4c-1.2-0.2-2.1-0.9-2.1-1.9c0-1,1-1.6,2.2-1.4
		S22.7,28.5,22.7,29.4z"/>
	
		<radialGradient id="SVGID_3_" cx="-4011.1816" cy="2370.4753" r="14.1321" gradientTransform="matrix(-0.3037 -4.346208e-03 -7.587721e-03 0.2484 -1172.6548 -585.129)" gradientUnits="userSpaceOnUse">
		<stop  offset="8.130000e-02" style="stop-color:#DE7F14"/>
		<stop  offset="0.3389" style="stop-color:#DA7D12"/>
		<stop  offset="0.5993" style="stop-color:#CE760D"/>
		<stop  offset="0.8602" style="stop-color:#BA6C05"/>
		<stop  offset="0.987" style="stop-color:#AD6500"/>
	</radialGradient>
	<path class="st14" d="M22.4,22.2c0,1.2,1.2,2.3,2.7,2.4c1.4,0.1,2.6-0.6,2.8-1.6h-0.1h-0.2l0.3,0.1c0-0.1,0-0.2,0-0.2
		c0-1-1.3-1.9-2.8-2c-1.3-0.1-2.4,0.4-2.8,1.1C22.5,22,22.4,22.1,22.4,22.2z"/>
	
		<radialGradient id="XMLID_26_" cx="-1767.9465" cy="4593.9521" r="7.102" gradientTransform="matrix(-0.2248 0.1685 0.1673 0.1495 -1137.4656 -371.6178)" gradientUnits="userSpaceOnUse">
		<stop  offset="8.750000e-02" style="stop-color:#D99914"/>
		<stop  offset="0.4098" style="stop-color:#D59612"/>
		<stop  offset="0.735" style="stop-color:#C98D0D"/>
		<stop  offset="0.987" style="stop-color:#BA8207"/>
	</radialGradient>
	<path id="XMLID_5_" class="st15" d="M29.1,18.4c0,0.4-0.6,0.7-1.4,0.7c-0.7-0.1-1.3-0.4-1.3-0.9c0-0.4,0.6-0.7,1.4-0.7
		C28.4,17.6,29.1,17.9,29.1,18.4z"/>
	
		<radialGradient id="XMLID_27_" cx="-4026.3071" cy="2398.9292" r="15.6725" gradientTransform="matrix(-0.3037 -4.346208e-03 -7.587721e-03 0.2484 -1172.6548 -585.129)" gradientUnits="userSpaceOnUse">
		<stop  offset="8.130000e-02" style="stop-color:#DE7F14"/>
		<stop  offset="0.3389" style="stop-color:#DA7D12"/>
		<stop  offset="0.5993" style="stop-color:#CE760D"/>
		<stop  offset="0.8602" style="stop-color:#BA6C05"/>
		<stop  offset="0.987" style="stop-color:#AD6500"/>
	</radialGradient>
	<path id="XMLID_4_" class="st16" d="M34.6,29.3c-0.1,1.5-1.7,2.7-3.7,2.5c-2-0.2-3.6-1.6-3.5-3.1c0.1-1.5,1.7-2.7,3.7-2.5
		C33,26.3,34.6,27.7,34.6,29.3z"/>
	
		<radialGradient id="XMLID_31_" cx="-4023.1157" cy="2365.6831" r="10.9118" gradientTransform="matrix(-0.3037 -4.346208e-03 -7.587721e-03 0.2484 -1172.6548 -585.129)" gradientUnits="userSpaceOnUse">
		<stop  offset="8.750000e-02" style="stop-color:#D99914"/>
		<stop  offset="0.4098" style="stop-color:#D59612"/>
		<stop  offset="0.735" style="stop-color:#C98D0D"/>
		<stop  offset="0.987" style="stop-color:#BA8207"/>
	</radialGradient>
	<path id="XMLID_3_" class="st17" d="M35.4,21.3c0,0.6-1,1-2.1,0.9c-1.1-0.1-2.1-0.6-2.1-1.3s1-1,2.1-0.9
		C34.5,20.2,35.4,20.7,35.4,21.3z"/>
	
		<radialGradient id="XMLID_33_" cx="-4049.0579" cy="2414.2852" r="5.9285" gradientTransform="matrix(-0.3037 -4.346208e-03 -7.587721e-03 0.2484 -1172.6548 -585.129)" gradientUnits="userSpaceOnUse">
		<stop  offset="8.130000e-02" style="stop-color:#DE7F14"/>
		<stop  offset="0.3389" style="stop-color:#DA7D12"/>
		<stop  offset="0.5993" style="stop-color:#CE760D"/>
		<stop  offset="0.8602" style="stop-color:#BA6C05"/>
		<stop  offset="0.987" style="stop-color:#AD6500"/>
	</radialGradient>
	<path id="XMLID_2_" class="st18" d="M39.6,32.7c0,0.8-0.9,1.3-1.9,1.3c-1-0.1-1.8-0.8-1.8-1.6s0.9-1.3,1.9-1.3
		C38.9,31.2,39.7,31.9,39.6,32.7z"/>
	
		<radialGradient id="SVGID_4_" cx="-4053.563" cy="2384.5525" r="8.8408" gradientTransform="matrix(-0.3037 -4.346208e-03 -7.587721e-03 0.2484 -1172.6548 -585.129)" gradientUnits="userSpaceOnUse">
		<stop  offset="8.600000e-02" style="stop-color:#C77315"/>
		<stop  offset="0.3774" style="stop-color:#C37113"/>
		<stop  offset="0.6718" style="stop-color:#B76C0F"/>
		<stop  offset="0.9669" style="stop-color:#A36407"/>
		<stop  offset="0.987" style="stop-color:#A16306"/>
	</radialGradient>
	<path class="st19" d="M38.4,25.6c0,0.5,0.5,1.1,1.3,1.2c0.7,0.1,1.3-0.4,1.3-0.9c0-0.1,0-0.1,0-0.2l0,0c0-0.4-0.6-0.8-1.3-0.8
		c-0.5-0.1-1,0.1-1.3,0.4l0,0C38.4,25.3,38.4,25.5,38.4,25.6z"/>
	
		<radialGradient id="XMLID_34_" cx="-4065.9746" cy="2403.4182" r="4.3985" gradientTransform="matrix(-0.3037 -4.346208e-03 -7.587721e-03 0.2484 -1172.6548 -585.129)" gradientUnits="userSpaceOnUse">
		<stop  offset="8.130000e-02" style="stop-color:#DE7F14"/>
		<stop  offset="0.3389" style="stop-color:#DA7D12"/>
		<stop  offset="0.5993" style="stop-color:#CE760D"/>
		<stop  offset="0.8602" style="stop-color:#BA6C05"/>
		<stop  offset="0.987" style="stop-color:#AD6500"/>
	</radialGradient>
	<path id="XMLID_1_" class="st20" d="M44.3,29.9c0,0.4-0.4,0.7-1,0.7s-1-0.4-1-0.9c0-0.4,0.4-0.7,1-0.7
		C43.8,29.1,44.3,29.4,44.3,29.9z"/>
</g>
<g id="Layer_1_3_">
	
		<linearGradient id="XMLID_36_" gradientUnits="userSpaceOnUse" x1="-2422.5173" y1="1005.6546" x2="-2422.5173" y2="1014.7643" gradientTransform="matrix(-0.6287 -3.929030e-02 -5.047998e-02 0.8077 -1440.6815 -892.0513)">
		<stop  offset="1.970000e-02" style="stop-color:#F7BC00"/>
		<stop  offset="1" style="stop-color:#FCD73E"/>
	</linearGradient>
	<path id="XMLID_14_" class="st21" d="M40.6,17.2l-0.6,7.2l-16.7-3.8c-0.6-0.2-1.1-0.7-1-1.3c0.2-1.9,0.3-3.9,0.4-5.8
		c0-0.4,0.1-0.8,0.5-0.9c0.4-0.1,0.7,0.1,1,0.2l2,0.5c0,0.1,0,0.2,0,0.2c-0.1,0.8,0.6,1.5,1.5,1.6c0.8,0.1,1.5-0.4,1.7-1.1l6.2,1.5
		c-0.1,0.1-0.1,0.2-0.1,0.3c0,0.4,0.3,0.7,0.7,0.8s0.8-0.2,0.9-0.5v-0.1C37.2,16.2,40.6,17.2,40.6,17.2z"/>
	<path class="st1" d="M22.8,13.7c0.2-0.5,0-1.3,1.5-0.7l2,0.5c0.2-0.4,0.9-0.8,1.7-0.7c0.9,0.1,1.6,0.7,1.5,1.3c0,0.1,0,0.1,0,0.2
		l6.2,1.5l0,0c0.2-0.2,0.4-0.3,0.7-0.2c0.4,0.1,0.7,0.3,0.7,0.5l3.4,1L32,10.3c-0.8-0.6-1.8-0.9-2.8-0.8c-1,0.2-2.2,0.4-3.1,0.7
		c-1.1,0.4-2.1,1.2-2.8,1.7c0,0-0.3,0.3-0.4,0.5C22.9,12.8,22.8,13.2,22.8,13.7z"/>
	<g class="st2">
		<path class="st3" d="M29.8,9.9c0.7,0,1.3,0.3,1.9,0.7l8.4,6.7l-0.5,6.5l-16.1-3.7c-0.4-0.1-0.6-0.4-0.6-0.8
			c0.1-1.1,0.2-2.2,0.3-3.3c0.1-0.8,0.1-1.6,0.2-2.4c0-0.1,0-0.1,0-0.2l0,0c0-0.3,0.1-0.6,0.2-0.8c0.1-0.2,0.3-0.4,0.3-0.4
			c0.6-0.5,1.6-1.3,2.6-1.6c0.7-0.3,1.7-0.5,3-0.6C29.4,9.9,29.6,9.9,29.8,9.9 M29.9,9.5c-0.2,0-0.4,0-0.6,0c-1,0.2-2.2,0.4-3.1,0.7
			c-1.1,0.4-2.1,1.2-2.8,1.7c0,0-0.3,0.3-0.4,0.5c-0.1,0.3-0.2,0.5-0.2,1c0,0.1,0,0.2,0,0.2c-0.2,1.9-0.3,3.9-0.4,5.8
			c-0.1,0.5,0.4,1.1,1,1.3l16.6,3.9l0.6-7.3L32,10.3C31.4,9.8,30.6,9.6,29.9,9.5L29.9,9.5z"/>
	</g>
	
		<radialGradient id="XMLID_37_" cx="-6300.0713" cy="3184.4993" r="6.8687" gradientTransform="matrix(-0.1796 -6.822554e-03 -1.390662e-02 0.1656 -1061.7786 -552.2233)" gradientUnits="userSpaceOnUse">
		<stop  offset="8.130000e-02" style="stop-color:#DE7F14"/>
		<stop  offset="0.3389" style="stop-color:#DA7D12"/>
		<stop  offset="0.5993" style="stop-color:#CE760D"/>
		<stop  offset="0.8602" style="stop-color:#BA6C05"/>
		<stop  offset="0.987" style="stop-color:#AD6500"/>
	</radialGradient>
	<path id="XMLID_13_" class="st22" d="M26.1,18.5c-0.1,0.6-0.6,1.1-1.3,1c-0.7-0.1-1.2-0.6-1.2-1.3c0.1-0.6,0.6-1.1,1.3-1
		C25.7,17.3,26.2,17.9,26.1,18.5z"/>
	
		<radialGradient id="SVGID_5_" cx="-6319.3003" cy="3153.0095" r="14.1321" gradientTransform="matrix(-0.1796 -6.822554e-03 -1.390662e-02 0.1656 -1061.7786 -552.2233)" gradientUnits="userSpaceOnUse">
		<stop  offset="8.130000e-02" style="stop-color:#DE7F14"/>
		<stop  offset="0.3389" style="stop-color:#DA7D12"/>
		<stop  offset="0.5993" style="stop-color:#CE760D"/>
		<stop  offset="0.8602" style="stop-color:#BA6C05"/>
		<stop  offset="0.987" style="stop-color:#AD6500"/>
	</radialGradient>
	<path class="st23" d="M26.3,13.7c-0.1,0.8,0.6,1.5,1.5,1.6c0.8,0.1,1.5-0.4,1.7-1.1h-0.1h-0.1h0.2c0-0.1,0-0.1,0-0.2
		c0.1-0.6-0.6-1.3-1.5-1.3c-0.8-0.1-1.4,0.2-1.7,0.7C26.3,13.5,26.3,13.6,26.3,13.7z"/>
	
		<radialGradient id="XMLID_38_" cx="-2895.1467" cy="7230.9385" r="7.102" gradientTransform="matrix(-0.1395 0.1095 9.338627e-02 0.1019 -1049.0942 -409.3478)" gradientUnits="userSpaceOnUse">
		<stop  offset="8.750000e-02" style="stop-color:#D99914"/>
		<stop  offset="0.4098" style="stop-color:#D59612"/>
		<stop  offset="0.735" style="stop-color:#C98D0D"/>
		<stop  offset="0.987" style="stop-color:#BA8207"/>
	</radialGradient>
	<path id="XMLID_12_" class="st24" d="M30.3,11.2c0,0.3-0.4,0.4-0.9,0.4s-0.8-0.4-0.8-0.6s0.4-0.4,0.9-0.4
		C30,10.6,30.3,10.9,30.3,11.2z"/>
	
		<radialGradient id="XMLID_39_" cx="-6334.4258" cy="3181.4634" r="15.6725" gradientTransform="matrix(-0.1796 -6.822554e-03 -1.390662e-02 0.1656 -1061.7786 -552.2233)" gradientUnits="userSpaceOnUse">
		<stop  offset="8.130000e-02" style="stop-color:#DE7F14"/>
		<stop  offset="0.3389" style="stop-color:#DA7D12"/>
		<stop  offset="0.5993" style="stop-color:#CE760D"/>
		<stop  offset="0.8602" style="stop-color:#BA6C05"/>
		<stop  offset="0.987" style="stop-color:#AD6500"/>
	</radialGradient>
	<path id="XMLID_11_" class="st25" d="M33.2,18.5c-0.1,1.1-1.1,1.8-2.2,1.6s-2.1-1.1-2-2.2c0.1-1.1,1.1-1.8,2.2-1.6
		C32.4,16.6,33.3,17.5,33.2,18.5z"/>
	
		<radialGradient id="XMLID_40_" cx="-6331.2344" cy="3148.2173" r="10.9118" gradientTransform="matrix(-0.1796 -6.822554e-03 -1.390662e-02 0.1656 -1061.7786 -552.2233)" gradientUnits="userSpaceOnUse">
		<stop  offset="8.750000e-02" style="stop-color:#D99914"/>
		<stop  offset="0.4098" style="stop-color:#D59612"/>
		<stop  offset="0.735" style="stop-color:#C98D0D"/>
		<stop  offset="0.987" style="stop-color:#BA8207"/>
	</radialGradient>
	<path id="XMLID_10_" class="st26" d="M33.9,13.2c0,0.4-0.6,0.6-1.3,0.5c-0.6-0.1-1.2-0.4-1.2-0.9c0-0.4,0.6-0.6,1.3-0.5
		S33.9,12.9,33.9,13.2z"/>
	
		<radialGradient id="XMLID_41_" cx="-6357.1763" cy="3196.8193" r="5.9285" gradientTransform="matrix(-0.1796 -6.822554e-03 -1.390662e-02 0.1656 -1061.7786 -552.2233)" gradientUnits="userSpaceOnUse">
		<stop  offset="8.130000e-02" style="stop-color:#DE7F14"/>
		<stop  offset="0.3389" style="stop-color:#DA7D12"/>
		<stop  offset="0.5993" style="stop-color:#CE760D"/>
		<stop  offset="0.8602" style="stop-color:#BA6C05"/>
		<stop  offset="0.987" style="stop-color:#AD6500"/>
	</radialGradient>
	<path id="XMLID_9_" class="st27" d="M36,20.9c0,0.5-0.5,0.9-1.2,0.8c-0.6-0.1-1.1-0.5-1-1.1c0-0.5,0.5-0.9,1.2-0.8
		C35.6,19.9,36.1,20.3,36,20.9z"/>
	
		<radialGradient id="SVGID_6_" cx="-6361.6816" cy="3167.0867" r="8.8408" gradientTransform="matrix(-0.1796 -6.822554e-03 -1.390662e-02 0.1656 -1061.7786 -552.2233)" gradientUnits="userSpaceOnUse">
		<stop  offset="8.600000e-02" style="stop-color:#C77315"/>
		<stop  offset="0.3774" style="stop-color:#C37113"/>
		<stop  offset="0.6718" style="stop-color:#B76C0F"/>
		<stop  offset="0.9669" style="stop-color:#A36407"/>
		<stop  offset="0.987" style="stop-color:#A16306"/>
	</radialGradient>
	<path class="st28" d="M35.5,16.1c0,0.4,0.3,0.7,0.7,0.8c0.4,0.1,0.8-0.2,0.9-0.5v-0.1l0,0c0-0.3-0.4-0.5-0.7-0.5
		c-0.4,0-0.6,0-0.7,0.2l0,0C35.6,15.9,35.5,16,35.5,16.1z"/>
	
		<radialGradient id="XMLID_42_" cx="-6374.0933" cy="3185.9524" r="4.3985" gradientTransform="matrix(-0.1796 -6.822554e-03 -1.390662e-02 0.1656 -1061.7786 -552.2233)" gradientUnits="userSpaceOnUse">
		<stop  offset="8.130000e-02" style="stop-color:#DE7F14"/>
		<stop  offset="0.3389" style="stop-color:#DA7D12"/>
		<stop  offset="0.5993" style="stop-color:#CE760D"/>
		<stop  offset="0.8602" style="stop-color:#BA6C05"/>
		<stop  offset="0.987" style="stop-color:#AD6500"/>
	</radialGradient>
	<path id="XMLID_8_" class="st29" d="M38.9,19.1c0,0.3-0.3,0.4-0.6,0.4c-0.4,0-0.5-0.3-0.5-0.6s0.3-0.4,0.6-0.4
		C38.7,18.5,38.9,18.8,38.9,19.1z"/>
</g>
</svg>